<?xml version="1.0" encoding="UTF-8" standalone="no"?>
<svg
   width="22"
   height="22"
   version="1"
   id="svg1475"
   sodipodi:docname="folder-cat-blue-code.svg"
   inkscape:version="1.1.2 (0a00cf5339, 2022-02-04, custom)"
   xmlns:inkscape="http://www.inkscape.org/namespaces/inkscape"
   xmlns:sodipodi="http://sodipodi.sourceforge.net/DTD/sodipodi-0.dtd"
   xmlns="http://www.w3.org/2000/svg"
   xmlns:svg="http://www.w3.org/2000/svg">
  <defs
     id="defs1479" />
  <sodipodi:namedview
     id="namedview1477"
     pagecolor="#505050"
     bordercolor="#ffffff"
     borderopacity="1"
     inkscape:pageshadow="0"
     inkscape:pageopacity="0"
     inkscape:pagecheckerboard="1"
     showgrid="false"
     inkscape:zoom="25.909091"
     inkscape:cx="12.215789"
     inkscape:cy="10.768421"
     inkscape:window-width="1232"
     inkscape:window-height="660"
     inkscape:window-x="20"
     inkscape:window-y="82"
     inkscape:window-maximized="1"
     inkscape:current-layer="svg1475" />
  <rect
     style="opacity:0.2"
     width="20"
     height="12"
     x="1"
     y="8.5"
     rx="1"
     ry="1"
     id="rect1461" />
  <path
     style="fill:#ffdede;fill-opacity:1"
     d="M 1,16 C 1,16.554 1.446,17 2,17 H 20 C 20.554,17 21,16.554 21,16 V 5 C 21,4.446 20.554,4 20,4 H 11 C 9.5,4 9,2 7.5,2 H 2 C 1.446,2 1,2.446 1,3"
     id="path1463" />
  <rect
     style="opacity:0.2"
     width="20"
     height="12"
     x="1"
     y="7.5"
     rx="1"
     ry="1"
     id="rect1465" />
  <rect
     style="fill:#f8f9fa;fill-opacity:1"
     width="16"
     height="8"
     x="3"
     y="6"
     rx="1"
     ry="1"
     id="rect1467" />
  <rect
     style="fill:#ffdede;fill-opacity:1"
     width="20"
     height="12"
     x="1"
     y="8"
     rx="1"
     ry="1"
     id="rect1469" />
  <path
     style="opacity:0.1;fill:#D9E0EE"
     d="M 2,2 C 1.446,2 1,2.446 1,3 V 3.5 C 1,2.946 1.446,2.5 2,2.5 H 7.5 C 9,2.5 9.5,4.5 11,4.5 H 20 C 20.554,4.5 21,4.946 21,5.5 V 5 C 21,4.446 20.554,4 20,4 H 11 C 9.5,4 9,2 7.5,2 Z"
     id="path1471" />
  <path
     style="fill:#212529;fill-opacity:1"
     d="M 13 10 L 13 11.5 L 15.25 13.5 L 13 15.5 L 13 17 L 17 13.566406 L 13 10 z M 11.572266 10.013672 L 9.5019531 17.740234 L 10.46875 18 L 12.539062 10.273438 L 11.572266 10.013672 z M 9 11 L 5 14.566406 L 9 18 L 9 16.5 L 6.75 14.5 L 9 12.5 L 9 11 z"
     id="path1473" />
</svg>
